<?xml version="1.0" encoding="utf-8"?>
<!-- Generator: Adobe Illustrator 21.0.0, SVG Export Plug-In . SVG Version: 6.00 Build 0)  -->
<svg version="1.1" xmlns="http://www.w3.org/2000/svg" xmlns:xlink="http://www.w3.org/1999/xlink" x="0px" y="0px"
	 viewBox="0 0 1224.6 931.8" style="enable-background:new 0 0 1224.6 931.8;" xml:space="preserve">
<style type="text/css">
	.st0{display:none;}
	.st1{fill:none;stroke:#303953;stroke-width:4;stroke-miterlimit:10;}
	.st2{fill:none;stroke:#F1BE44;stroke-width:4;stroke-miterlimit:10;}
	.st3{fill:none;stroke:#52A261;stroke-width:4;stroke-miterlimit:10;}
	.st4{fill:none;stroke:#D24A43;stroke-width:4;stroke-miterlimit:10;}
	.st5{font-family:'MyriadPro-Regular';}
	.st6{font-size:36px;}
	.st7{fill:none;stroke:#6E7073;stroke-miterlimit:10;}
	.st8{font-size:60px;}
	.st9{font-family:'NotoSansBatak-Regular';}
</style>
<g id="Layer_1" class="st0">
</g>
<g id="Layer_2">
</g>
<g id="Layer_3">
</g>
<g id="Layer_4">
	<line class="st1" x1="940.1" y1="215.2" x2="990.2" y2="215.2"/>
	<line class="st2" x1="940.1" y1="303.6" x2="990.2" y2="303.6"/>
	<line class="st3" x1="940.1" y1="264" x2="990.2" y2="264"/>
	<path class="st2" d="M149.5,521.1c19.2-15.9,57.9-43.2,112.2-50c65.4-8.2,118.9,17.5,140.2,28c69.6,34.5,78.8,74.4,117.1,70.7
		c30.6-3,29.3-29,86.6-67.1c25-16.6,68.8-45.7,125.6-45.1c28.7,0.3,52.9,8.1,76.8,15.9c29.7,9.6,53.2,21.3,69.5,30.5"/>
	<line class="st1" x1="932.4" y1="564.9" x2="659.4" y2="549.2"/>
	<line class="st1" x1="659.4" y1="549.2" x2="528.5" y2="493"/>
	<line class="st1" x1="528.5" y1="493" x2="470.6" y2="573.7"/>
	<line class="st1" x1="470.6" y1="573.7" x2="402" y2="556.1"/>
	<line class="st1" x1="149.7" y1="591.3" x2="402" y2="556.1"/>
	<line class="st4" x1="898.3" y1="505.3" x2="664.1" y2="606.9"/>
	<line class="st4" x1="664.1" y1="606.9" x2="540.8" y2="603.8"/>
	<line class="st4" x1="540.8" y1="603.8" x2="448.8" y2="647.5"/>
	<line class="st4" x1="448.8" y1="647.5" x2="317.8" y2="611.6"/>
	<line class="st4" x1="149.7" y1="653.7" x2="317.8" y2="611.6"/>
	<text transform="matrix(1 0 0 1 1016.0371 186.477)"><tspan x="0" y="0" class="st5 st6">Daten 1</tspan><tspan x="0" y="43.2" class="st5 st6">Daten 2</tspan><tspan x="0" y="86.4" class="st5 st6">Daten 3</tspan><tspan x="0" y="129.6" class="st5 st6">Daten 4</tspan></text>
	<line class="st4" x1="940.1" y1="172.7" x2="990.2" y2="172.7"/>
	<line class="st7" x1="887.5" y1="721.8" x2="909" y2="707.1"/>
	<line class="st7" x1="909" y1="707.1" x2="882.7" y2="694.1"/>
	<line class="st7" x1="170.2" y1="258.4" x2="151.4" y2="230.7"/>
	<line class="st7" x1="151.4" y1="230.7" x2="127.7" y2="259"/>
	<line class="st7" x1="909" y1="707.1" x2="147.9" y2="707.1"/>
	<line class="st3" x1="869.9" y1="383" x2="752.9" y2="374.2"/>
	<line class="st3" x1="752.9" y1="374.2" x2="668.6" y2="513.9"/>
	<line class="st3" x1="668.6" y1="513.9" x2="473.5" y2="457.7"/>
	<line class="st3" x1="473.5" y1="457.7" x2="317.4" y2="513.9"/>
	<line class="st3" x1="149.1" y1="549.2" x2="317.4" y2="513.9"/>
	<line class="st7" x1="151.4" y1="230.7" x2="147.9" y2="707.1"/>
	<text transform="matrix(1 0 0 1 115.8979 96.3165)"><tspan x="0" y="0" class="st5 st8">Diagramm</tspan><tspan x="265.1" y="0" class="st9 st8"> </tspan><tspan x="280.7" y="0" class="st5 st8">2</tspan></text>
</g>
</svg>
