<svg xmlns="http://www.w3.org/2000/svg" viewBox="0 0 1017.14 702.16"><defs><style>.cls-1{font-size:24px;}.cls-1,.cls-10,.cls-4{fill:#201600;font-family:MyriadPro-Regular, Myriad Pro;}.cls-2{letter-spacing:0em;}.cls-3{letter-spacing:-0.01em;}.cls-4{font-size:36px;}.cls-5{letter-spacing:0em;}.cls-6{letter-spacing:-0.01em;}.cls-7{fill:#303953;stroke:#303953;}.cls-7,.cls-8,.cls-9{stroke-miterlimit:10;}.cls-8,.cls-9{fill:none;}.cls-8{stroke:#d24a43;}.cls-9{stroke:#6e7073;}.cls-10{font-size:60px;}.cls-11{letter-spacing:-0.01em;}.cls-12{letter-spacing:0em;}.cls-13{letter-spacing:0em;}.cls-14{font-family:NotoSansBatak-Regular, Noto Sans Batak;}</style></defs><title>diagramm1</title><g id="Layer_4" data-name="Layer 4"><text class="cls-1" transform="translate(496.39 696.16)">d<tspan class="cls-2" x="13.54" y="0">a</tspan><tspan class="cls-3" x="25.01" y="0">t</tspan><tspan x="32.81" y="0">e</tspan></text><text class="cls-1" transform="translate(316.61 696.16)">d<tspan class="cls-2" x="13.54" y="0">a</tspan><tspan class="cls-3" x="25.01" y="0">t</tspan><tspan x="32.81" y="0">e</tspan></text><text class="cls-4" transform="translate(900.14 141.58)">D<tspan class="cls-5" x="23.98" y="0">a</tspan><tspan class="cls-6" x="41.18" y="0">t</tspan><tspan x="52.88" y="0">en 1</tspan><tspan x="0" y="43.2">D</tspan><tspan class="cls-5" x="23.98" y="43.2">a</tspan><tspan class="cls-6" x="41.18" y="43.2">t</tspan><tspan x="52.88" y="43.2">en 2</tspan></text><rect class="cls-7" x="824.15" y="169.68" width="50.14" height="15.97"/><line class="cls-8" x1="824.15" y1="127.77" x2="874.29" y2="127.77"/><line class="cls-8" x1="722.57" y1="250.99" x2="742.25" y2="232.85"/><line class="cls-8" x1="707.55" y1="224.18" x2="742.25" y2="232.85"/><line class="cls-8" x1="34.15" y1="372.73" x2="742.25" y2="232.85"/><rect class="cls-7" x="475.55" y="320.91" width="71.44" height="341.26"/><rect class="cls-7" x="304.39" y="532.34" width="71.44" height="129.83"/><rect class="cls-7" x="111.2" y="402.52" width="71.44" height="259.66"/><line class="cls-9" x1="771.63" y1="676.9" x2="793.12" y2="662.17"/><line class="cls-9" x1="793.12" y1="662.17" x2="766.85" y2="649.16"/><line class="cls-9" x1="54.31" y1="213.47" x2="35.55" y2="185.76"/><line class="cls-9" x1="35.55" y1="185.76" x2="11.8" y2="214.06"/><line class="cls-9" x1="793.12" y1="662.17" x2="31.99" y2="662.17"/><line class="cls-9" x1="35.55" y1="185.76" x2="31.99" y2="662.17"/><text class="cls-1" transform="translate(120.73 696.16)">d<tspan class="cls-2" x="13.54" y="0">a</tspan><tspan class="cls-3" x="25.01" y="0">t</tspan><tspan x="32.81" y="0">e</tspan></text><text class="cls-10" transform="translate(0 51.42)">Dia<tspan class="cls-11" x="82.92" y="0">g</tspan><tspan class="cls-12" x="116.1" y="0">r</tspan><tspan class="cls-13" x="135.42" y="0">amm</tspan><tspan class="cls-14" x="264.42" y="0"> </tspan><tspan x="280.02" y="0">1</tspan></text></g></svg>