<?xml version="1.0" encoding="UTF-8" standalone="no"?>
<!-- Created with Inkscape (http://www.inkscape.org/) -->

<svg
   xmlns:dc="http://purl.org/dc/elements/1.1/"
   xmlns:cc="http://creativecommons.org/ns#"
   xmlns:rdf="http://www.w3.org/1999/02/22-rdf-syntax-ns#"
   xmlns:svg="http://www.w3.org/2000/svg"
   xmlns="http://www.w3.org/2000/svg"
   xmlns:sodipodi="http://sodipodi.sourceforge.net/DTD/sodipodi-0.dtd"
   xmlns:inkscape="http://www.inkscape.org/namespaces/inkscape"
   width="5.2916679mm"
   height="5.2916331mm"
   viewBox="0 0 5.2916679 5.2916331"
   version="1.1"
   id="svg8"
   inkscape:version="0.92.4 (5da689c313, 2019-01-14)"
   sodipodi:docname="Zeichnung.svg">
  <defs
     id="defs2">
    <inkscape:path-effect
       effect="fill_between_many"
       id="path-effect833"
       is_visible="true"
       linkedpaths=""
       allow_transforms="false" />
    <inkscape:path-effect
       effect="perspective-envelope"
       up_left_point="98.160417,178.20208"
       up_right_point="102.92292,178.20208"
       down_left_point="98.160417,182.96458"
       down_right_point="102.92292,182.96458"
       id="path-effect4634"
       is_visible="true"
       deform_type="perspective"
       horizontal_mirror="false"
       vertical_mirror="false"
       overflow_perspective="false" />
  </defs>
  <sodipodi:namedview
     id="base"
     pagecolor="#ffffff"
     bordercolor="#666666"
     borderopacity="1.0"
     inkscape:pageopacity="0.0"
     inkscape:pageshadow="2"
     inkscape:zoom="16"
     inkscape:cx="-3.0807832"
     inkscape:cy="7.8928113"
     inkscape:document-units="mm"
     inkscape:current-layer="layer1"
     showgrid="true"
     inkscape:window-width="1920"
     inkscape:window-height="1017"
     inkscape:window-x="-8"
     inkscape:window-y="-8"
     inkscape:window-maximized="1">
    <inkscape:grid
       type="xygrid"
       id="grid815"
       empspacing="5"
       originx="-97.895827"
       originy="-113.77087" />
  </sodipodi:namedview>
  <metadata
     id="metadata5">
    <rdf:RDF>
      <cc:Work
         rdf:about="">
        <dc:format>image/svg+xml</dc:format>
        <dc:type
           rdf:resource="http://purl.org/dc/dcmitype/StillImage" />
        <dc:title />
      </cc:Work>
    </rdf:RDF>
  </metadata>
  <g
     inkscape:label="Ebene 1"
     inkscape:groupmode="layer"
     id="layer1"
     style="display:inline"
     transform="translate(-97.895832,-177.93749)">
    <path
       style="fill:#ffffff;fill-opacity:1;stroke:none;stroke-width:1.99999988;stroke-miterlimit:4;stroke-dasharray:none;stroke-opacity:1"
       d="m 370,676.51953 v 13 c 0,1.30906 0.83531,2.40679 2,2.81836 v -2.81836 -1 -10 c 5.00001,0 2.99999,10 8,10 4.99997,0 3.00003,-10 8,-10 v 10 1 2.81836 c 1.16469,-0.41157 2,-1.5093 2,-2.81836 v -13 h -2 c -6.99999,0 -5,10 -8,10 -3.00001,0 -1.00001,-10 -8,-10 z"
       transform="scale(0.26458333)"
       id="rect4553"
       inkscape:connector-curvature="0" />
    <path
       style="display:inline;fill:#8ba5cb;fill-opacity:1;stroke:none;stroke-width:0.52916664;stroke-miterlimit:4;stroke-dasharray:none;stroke-opacity:1"
       d="m 98.689586,177.93749 c -0.43974,0 -0.79375,0.35401 -0.79375,0.79375 v 0.26459 h 0.529167 v -0.26459 c 0,-0.14657 0.118004,-0.26458 0.264583,-0.26458 h 3.704164 c 0.14657,0 0.26458,0.11801 0.26458,0.26458 v 0.26459 h 0.52917 v -0.26459 c 0,-0.43974 -0.35401,-0.79375 -0.79375,-0.79375 z"
       id="rect4553-9"
       inkscape:connector-curvature="0" />
    <path
       style="display:inline;fill:#8ba5cb;fill-opacity:1;stroke:none;stroke-width:1.99999988;stroke-miterlimit:4;stroke-dasharray:none;stroke-opacity:1"
       d="m 372,689.51953 v 2.81836 c 0.31399,0.11096 0.64709,0.18164 1,0.18164 h 14 c 0.35292,0 0.68601,-0.0707 1,-0.18164 v -2.81836 c 0,0.55397 -0.44603,1 -1,1 h -14 c -0.55397,0 -1,-0.44603 -1,-1 z"
       id="rect4553-7"
       transform="scale(0.26458333)"
       inkscape:connector-curvature="0" />
  </g>
  <g
     inkscape:groupmode="layer"
     id="layer2"
     inkscape:label="Ebene 2"
     transform="translate(-97.895832,-177.93749)" />
</svg>
