<?xml version="1.0" encoding="UTF-8" standalone="no"?>
<!DOCTYPE svg PUBLIC "-//W3C//DTD SVG 20010904//EN"
              "http://www.w3.org/TR/2001/REC-SVG-20010904/DTD/svg10.dtd">

<svg xmlns="http://www.w3.org/2000/svg"
     width="100" height="100"
     viewBox="0 0 100 100">
  <path fill="grey" stroke="none" stroke-width="1"
        d="M 70.29,26.24
           C 69.11,26.24 67.95,25.52 66.57,25.84
             61.14,26.84 62.19,33.59 64.01,35.24
             66.59,37.21 68.99,36.80 70.45,36.52
             72.82,35.37 73.54,33.96 74.39,32.59
             75.26,30.96 78.43,29.87 79.55,32.93
             80.16,40.97 72.58,43.27 69.58,44.06
             68.44,44.31 66.74,44.32 65.80,44.19
             59.49,43.07 57.51,37.59 57.03,35.02
             56.60,31.84 56.95,28.65 57.73,26.80
             58.90,24.34 61.95,22.59 64.73,22.23
             65.82,22.06 68.70,22.02 70.14,23.18
             71.62,25.10 70.76,26.18 70.29,26.24 Z" />
  <path fill="grey" stroke="none" stroke-width="1"
        d="M 45.17,21.37
           C 43.98,21.37 42.82,20.65 41.45,20.96
             36.01,21.96 37.06,28.71 38.89,30.37
             41.47,32.33 43.86,31.92 45.32,31.65
             47.70,30.49 48.42,29.09 49.26,27.71
             50.14,26.09 53.30,24.99 54.43,28.06
             55.03,36.09 47.45,38.39 44.45,39.18
             43.32,39.44 41.61,39.44 40.68,39.32
             34.36,38.19 32.38,32.72 31.91,30.14
             31.47,26.97 31.82,23.77 32.61,21.93
             33.78,19.47 36.82,17.71 39.60,17.36
             40.70,17.18 43.57,17.15 45.01,18.30
             46.50,20.23 45.64,21.30 45.17,21.37 Z" />
  <path fill="grey" stroke="none" stroke-width="1"
        d="M 32.42,44.37
           C 31.23,44.37 30.07,43.65 28.70,43.96
             23.26,44.96 24.31,51.71 26.14,53.37
             28.72,55.33 31.11,54.92 32.57,54.65
             34.95,53.49 35.67,52.09 36.51,50.71
             37.39,49.09 40.55,47.99 41.68,51.06
             42.28,59.09 34.70,61.39 31.70,62.18
             30.57,62.44 28.86,62.44 27.93,62.32
             21.61,61.19 19.63,55.72 19.16,53.14
             18.72,49.97 19.07,46.77 19.86,44.93
             21.03,42.47 24.07,40.71 26.85,40.36
             27.95,40.18 30.82,40.15 32.26,41.30
             33.75,43.23 32.89,44.30 32.42,44.37 Z" />
  <path fill="grey" stroke="none" stroke-width="1"
        d="M 44.78,67.09
           C 43.59,67.09 42.44,66.38 41.06,66.69
             35.62,67.69 36.67,74.44 38.50,76.09
             41.08,78.06 43.48,77.65 44.94,77.38
             47.31,76.22 48.03,74.81 48.88,73.44
             49.75,71.81 52.92,70.72 54.04,73.78
             54.65,81.82 47.07,84.12 44.07,84.91
             42.93,85.16 41.23,85.17 40.29,85.04
             33.98,83.92 32.00,78.45 31.52,75.87
             31.09,72.70 31.44,69.50 32.22,67.66
             33.39,65.19 36.44,63.44 39.22,63.09
             40.31,62.91 43.19,62.88 44.62,64.03
             46.11,65.96 45.25,67.03 44.78,67.09 Z" />
  <path fill="grey" stroke="none" stroke-width="1"
        d="M 73.44,16.97
           C 73.69,15.16 62.66,9.59 60.69,9.25
             52.30,6.96 43.57,8.38 40.50,9.00
             37.43,9.62 29.64,12.82 24.00,19.00
             -9.64,52.36 29.50,120.25 73.62,84.12
             75.88,82.00 74.78,77.74 73.74,76.87
             68.78,73.09 66.43,70.87 64.88,67.38
             62.56,61.38 67.88,58.81 70.00,58.50
             75.94,57.69 79.97,58.91 84.97,57.91
             92.81,55.66 92.67,42.44 92.00,40.88
             91.78,39.96 89.33,39.42 88.00,41.25
             86.70,43.09 86.93,47.77 83.43,50.30
             80.75,51.23 75.22,50.30 72.50,50.75
             63.96,51.96 58.61,57.09 57.04,64.57
             56.22,74.52 67.30,77.78 66.38,80.62
             65.00,85.09 54.82,89.45 41.45,86.91
             22.50,81.62 15.51,57.81 16.64,47.18
             18.73,30.64 25.62,23.20 31.94,16.88
             34.20,14.33 42.18,11.55 45.38,11.62
             46.28,11.59 56.63,11.26 60.44,12.72
             64.32,13.89 70.25,17.62 70.25,17.62
             70.25,17.62 73.03,19.16 73.44,16.97 Z
           M 154.50,34.75" />
</svg>
