<?xml version="1.0" encoding="UTF-8" standalone="no"?>
<!DOCTYPE svg PUBLIC "-//W3C//DTD SVG 20010904//EN"
              "http://www.w3.org/TR/2001/REC-SVG-20010904/DTD/svg10.dtd">

<svg xmlns="http://www.w3.org/2000/svg"
     width="100" height="100"
     viewBox="0 0 100 100">
  <path fill="grey" stroke="none" stroke-width="1"
        d="M 62.33,31.98
           C 63.53,30.97 64.47,32.16 64.13,33.35
             63.94,33.89 63.34,36.34 61.91,38.62
             60.84,40.34 58.25,42.72 56.97,43.47
             54.34,44.66 47.09,44.47 45.69,43.56
             43.72,42.12 42.53,39.44 42.25,36.69
             42.03,32.59 50.80,24.18 52.81,21.62
             53.71,20.38 55.52,14.83 53.38,14.06
             51.70,13.48 49.74,14.74 47.96,15.91
             46.30,16.83 44.77,19.22 44.83,21.09
             44.86,22.44 46.70,23.74 45.65,25.04
             44.43,25.87 43.91,25.87 42.48,25.09
             40.61,23.65 40.48,19.91 40.91,18.04
             41.78,14.87 44.37,12.64 44.12,12.25
             43.61,11.65 43.06,12.12 42.19,11.83
             40.95,11.31 42.48,8.28 44.50,7.19
             46.75,5.97 47.69,7.31 50.02,6.20
             51.78,5.70 57.09,3.91 60.70,4.70
             64.00,5.74 65.21,9.89 65.22,13.09
             64.86,18.98 59.52,26.00 57.65,28.13
             55.30,30.70 50.06,33.22 50.41,35.25
             51.00,38.25 54.98,37.85 55.69,37.56
             57.09,37.47 60.88,33.41 62.33,31.98 Z" />
  <path fill="grey" stroke="none" stroke-width="1"
        d="M 45.97,52.99
           C 46.59,51.90 46.31,49.53 48.06,48.19
             49.56,47.28 54.84,49.81 55.56,52.22
             55.94,53.56 53.47,57.81 52.03,58.72
             51.09,59.31 46.84,58.06 46.34,57.31
             45.84,56.44 44.91,55.15 45.97,52.99 Z" />
  <path fill="grey" stroke="none" stroke-width="1"
        d="M 40.45,40.64
           C 34.17,44.52 32.65,51.13 32.45,52.73
             32.13,57.78 33.17,62.19 35.52,66.17
             37.51,69.41 42.54,72.11 45.70,72.74
             48.83,73.35 55.00,73.47 57.96,72.48
             60.62,71.31 63.95,68.58 65.65,66.39
             67.17,64.63 69.33,60.09 69.91,58.24
             70.61,55.78 70.60,52.09 70.30,49.17
             69.22,44.91 67.35,41.35 65.35,40.87
             63.96,40.57 60.86,44.93 61.78,46.71
             63.00,48.62 64.65,49.83 65.36,53.09
             65.65,55.09 62.65,60.13 61.00,61.91
             59.13,63.78 57.52,65.61 54.82,66.27
             51.91,66.83 47.04,66.74 45.18,66.00
             43.04,65.04 40.21,62.59 39.04,60.78
             37.91,58.85 37.09,55.74 37.00,53.00
             36.96,48.78 40.42,44.78 41.93,43.51
             42.46,42.95 42.30,39.83 40.45,40.64 Z" />
  <path fill="grey" stroke="none" stroke-width="1"
        d="M 39.56,27.69
           C 40.28,27.55 41.31,28.64 40.69,29.41
             39.47,30.84 35.69,32.62 34.16,34.04
             32.76,35.40 30.63,37.29 28.36,41.64
             26.51,44.97 26.54,50.34 26.36,52.73
             26.25,57.06 27.64,61.10 28.36,62.91
             31.55,70.55 34.50,71.98 37.75,74.59
             41.16,77.19 44.28,77.48 46.18,77.73
             49.06,78.06 54.65,78.15 57.27,77.00
             58.95,76.33 62.05,74.98 63.64,73.64
             65.50,72.19 69.36,67.80 70.62,65.50
             71.71,64.15 73.72,59.01 74.56,57.00
             75.19,55.21 75.33,52.12 75.38,50.00
             75.38,46.53 73.27,42.61 72.19,40.62
             71.15,38.87 69.78,37.04 68.56,34.88
             67.19,31.62 71.00,30.38 72.12,31.38
             73.84,32.77 74.12,33.13 76.69,36.06
             79.06,39.31 80.62,43.12 81.06,47.06
             81.31,51.12 81.63,58.75 79.38,65.06
             76.76,69.48 73.12,75.37 71.07,77.13
             67.94,80.03 64.72,81.93 61.42,83.80
             57.77,85.54 47.93,85.27 44.91,84.55
             40.71,83.43 36.13,81.44 33.27,79.18
             29.76,76.78 27.71,73.73 25.69,70.45
             24.04,68.35 22.77,64.74 22.00,61.55
             21.46,59.42 21.48,53.63 21.73,50.09
             22.01,46.68 23.44,42.34 24.75,40.06
             26.09,37.75 28.41,35.03 30.53,33.12
             32.46,31.39 34.14,30.23 36.02,29.07
             37.22,28.44 38.66,27.73 39.56,27.69 Z" />
  <path fill="grey" stroke="none" stroke-width="1"
        d="M 36.39,16.57
           C 37.39,16.38 38.31,17.56 37.56,18.12
             36.41,19.09 29.26,23.65 27.30,25.39
             25.28,27.17 22.27,30.11 19.12,36.12
             16.56,40.75 15.75,45.56 15.50,48.88
             14.94,54.75 16.00,62.62 17.00,65.12
             20.94,75.69 26.50,80.25 31.00,83.88
             36.18,88.27 41.00,88.82 44.00,89.38
             48.09,90.09 56.87,90.22 60.50,88.62
             62.83,87.70 67.30,85.74 69.50,83.88
             72.09,81.87 79.38,75.06 81.12,71.88
             82.62,70.00 84.58,63.16 85.75,60.38
             86.62,57.89 86.94,52.31 87.00,49.38
             87.00,44.56 83.38,35.88 81.88,33.12
             80.44,30.69 77.69,27.88 76.00,24.88
             75.06,23.06 77.44,21.25 79.00,22.62
             81.38,24.56 83.56,26.94 87.12,31.00
             90.50,36.12 93.12,45.38 93.00,50.12
             92.59,55.68 92.22,62.89 89.09,71.64
             85.47,77.76 82.09,82.82 79.25,85.25
             74.91,89.27 70.45,91.91 65.88,94.50
             60.82,96.91 47.18,97.36 43.00,96.36
             37.18,94.82 31.45,92.00 27.50,88.88
             22.64,85.55 19.18,80.55 16.38,76.00
             14.09,73.09 11.82,65.55 10.75,61.12
             10.00,58.18 9.91,51.91 10.25,47.00
             10.64,42.27 12.91,36.73 15.00,33.75
             17.91,29.55 20.64,26.36 23.62,24.12
             26.27,22.00 29.52,19.84 32.13,18.17
             33.79,17.30 35.14,16.63 36.39,16.57 Z" />
</svg>
