<?xml version="1.0" encoding="UTF-8" standalone="no"?>
<!DOCTYPE svg PUBLIC "-//W3C//DTD SVG 20010904//EN"
              "http://www.w3.org/TR/2001/REC-SVG-20010904/DTD/svg10.dtd">

<svg xmlns="http://www.w3.org/2000/svg"
     width="100" height="100"
     viewBox="0 0 100 100">
  <path fill="grey" stroke="none" stroke-width="1"
        d="M 94.66,62.88
           C 94.12,63.38 93.10,62.75 92.25,63.12
             91.38,63.47 93.06,69.22 92.91,72.88
             92.78,74.47 91.62,75.36 90.72,75.34
             89.34,75.27 86.94,74.94 86.18,75.91
             85.44,76.94 86.59,83.28 86.12,84.47
             85.56,85.75 84.38,87.06 82.91,87.31
             80.97,87.56 71.67,88.27 69.20,87.62
             66.58,86.78 66.06,85.06 65.94,82.97
             65.88,81.19 66.38,77.91 65.91,76.22
             65.44,75.00 60.89,76.22 60.06,74.12
             59.53,71.91 60.11,67.70 59.59,66.06
             58.61,63.26 55.97,65.41 54.59,62.69
             53.56,60.62 54.25,55.49 53.66,54.16
             52.76,52.33 50.05,53.58 48.53,51.09
             46.80,48.00 47.46,42.80 46.73,42.00
             45.84,41.05 43.02,41.44 41.94,38.81
             40.80,35.62 42.06,31.70 41.45,30.45
             40.19,27.98 38.38,29.83 37.33,27.42
             36.05,24.06 37.12,19.72 36.27,18.82
             35.02,17.64 31.61,17.59 30.45,18.91
             29.59,19.84 31.25,24.59 29.55,27.70
             27.91,30.38 25.02,29.38 22.82,30.18
             21.56,30.73 22.89,37.29 21.87,38.60
             20.44,40.24 17.53,38.18 16.53,39.84
             15.84,41.27 16.74,46.09 16.43,50.00
             15.61,52.39 8.87,51.22 8.74,49.09
             8.41,42.06 8.25,38.21 8.91,36.34
             10.28,33.06 13.80,34.88 14.56,33.09
             15.65,30.65 14.47,26.19 15.56,25.19
             18.31,23.23 20.53,23.78 21.66,22.62
             22.02,22.04 22.06,16.62 22.59,12.97
             22.94,11.03 25.31,10.81 26.18,10.82
             29.78,10.78 39.20,10.27 40.59,10.78
             44.75,11.81 42.97,17.41 43.94,23.44
             44.09,24.19 47.52,23.04 48.12,24.59
             49.56,28.34 48.75,33.34 49.12,35.69
             49.38,36.75 52.41,35.16 53.22,36.47
             54.53,39.12 53.62,47.00 54.45,47.45
             55.97,47.97 58.22,46.78 59.25,48.75
             60.66,51.66 59.09,58.55 59.94,59.41
             61.72,60.94 63.75,59.38 64.44,60.94
             65.55,63.34 64.41,70.12 65.36,71.27
             66.84,72.41 69.00,71.00 69.94,72.31
             70.62,73.47 69.44,81.69 70.53,83.06
             71.69,84.31 80.91,83.75 82.45,83.27
             83.47,82.81 81.81,74.91 83.30,72.65
             85.12,70.09 87.64,72.13 89.19,70.53
             90.07,69.54 88.74,63.55 89.88,61.41
             90.28,60.56 93.72,60.56 94.56,61.00
             95.31,61.47 94.97,62.75 94.66,62.88 Z" />
</svg>
